<?xml version="1.0" encoding="utf-8"?>
<!-- Generator: Adobe Illustrator 26.0.1, SVG Export Plug-In . SVG Version: 6.00 Build 0)  -->
<svg version="1.1" id="Warstwa_1" xmlns="http://www.w3.org/2000/svg" xmlns:xlink="http://www.w3.org/1999/xlink" x="0px" y="0px"
	 viewBox="0 0 415.68 561.99" style="enable-background:new 0 0 415.68 561.99;" xml:space="preserve">
<style type="text/css">
	.st0{fill:#FFD600;}
</style>
<circle class="st0" cx="207.74" cy="353.24" r="204.96"/>
<g>
	<polygon points="195.92,406.2 186.89,449.16 192.18,449.16 200.9,406.2 	"/>
	<polygon points="233.58,430.48 225.18,430.48 224.24,435.15 227.67,435.15 226.42,441.06 225.49,443.56 224.24,444.49 
		222.69,445.11 221.13,445.11 219.26,444.8 217.71,444.18 217.08,442.93 217.39,440.44 223,414.61 223.62,412.74 224.86,411.49 
		226.42,410.87 228.29,410.56 229.84,411.18 231.09,412.12 231.71,413.67 231.71,415.85 230.16,423.63 234.83,423.63 237.01,413.36 
		237.01,410.87 235.76,408.69 234.51,407.76 232.96,406.82 228.6,406.2 223.93,406.82 221.13,408.38 219.26,410.87 218.33,413.67 
		212.72,439.51 212.1,442 212.41,444.18 212.72,445.73 213.66,446.98 215.21,447.91 216.77,448.54 220.82,449.16 224.55,448.85 
		227.36,447.91 229.53,446.05 230.78,442.31 	"/>
	<polygon points="211.17,406.2 206.19,406.2 196.85,449.16 210.54,449.16 211.48,444.49 203.08,444.49 	"/>
	<path d="M257.24,249.63l-7.47,0.31l-8.41,1.25l-5.29,1.24l-4.98,1.87l-4.67,2.49l-4.36,3.42l-3.74,4.05l-3.42,4.98l-2.8,5.91
		l-2.18,6.54l-7.16,5.29l-7.16,5.91l-6.85,6.23l-5.91,7.16l-5.6,8.09l-4.67,9.03l-4.05,9.65l-2.8,10.89l-1.87,10.27l-1.25,11.52
		l-1.24,27.08l-5.29,1.87l-5.91,1.87v8.09l5.91-1.56l5.29-2.18l-0.31,48.25h3.74l10.27-25.21l-0.62,25.21h3.74l16.19-42.65h-5.6
		l-8.4,21.48l0.31-21.48h-4.67l-9.34,23.97l1.87-32.06l8.09-3.42l7.47-4.05l7.16-4.36l6.54-4.98l6.23-5.29l5.91-5.6l5.6-6.22
		l5.6-6.85l4.36-5.91l3.74-6.54l3.42-6.85l2.8-7.16l2.49-7.16l1.87-7.47l3.11-14.32l3.42-31.13l0.62-3.74l1.25-4.98l1.25-2.8
		l1.56-2.18l1.87-1.56l2.18-0.93l4.98-0.93l5.29-0.31v-4.36L257.24,249.63z M237.63,293.83l-2.8,15.25l-1.87,7.78l-2.49,7.47
		l-3.11,7.78l-3.74,7.78l-4.98,8.09l-5.29,7.78l-5.91,7.47l-6.85,6.54l-6.85,6.23l-7.78,5.29l-8.4,4.98l-9.03,4.36l1.56-26.46
		l1.24-10.27l1.25-8.4l1.87-7.47l2.49-7.16l3.43-6.85l3.73-7.47l4.67-6.23l4.67-5.91l5.6-5.91l6.23-5.29l6.85-4.67l8.09-4.36
		l8.72-3.11l10.27-2.49L237.63,293.83z M243.23,259.28l-1.56,4.05l-0.93,4.05l-0.62,4.36l-11.21,2.8l-10.58,3.74l1.56-4.98
		l2.18-4.36l2.8-3.74l3.11-3.11l3.74-2.49l4.05-1.87l4.36-1.25l4.98-0.93L243.23,259.28z"/>
	<polygon points="238.25,260.21 237.01,259.9 236.07,260.21 235.14,260.83 234.51,262.39 235.14,264.26 236.07,264.88 
		237.01,264.88 238.25,264.88 238.87,264.26 239.49,262.39 238.87,260.83 	"/>
	<path d="M246.03,406.2l-15.25,42.96h5.29l4.67-13.39h6.85v13.39h5.61l-1.25-42.96H246.03z M242.92,430.17l4.36-12.76l0.31,12.76
		H242.92z"/>
</g>
<path class="st0" d="M121.04,147.62c26.65-11.25,55.95-17.48,86.7-17.48c27.03,0,52.94,4.81,76.91,13.62V79.81H238.2
	c6.58-7.94,10.54-18.14,10.54-29.26c0-25.34-20.55-45.89-45.89-45.89s-45.89,20.55-45.89,45.89c0,11.12,3.96,21.32,10.54,29.26
	h-46.46V147.62z M202.85,18.88c17.49,0,31.66,14.18,31.66,31.66c0,13.2-8.08,24.51-19.56,29.26h-24.2
	c-11.48-4.75-19.56-16.06-19.56-29.26C171.19,33.06,185.36,18.88,202.85,18.88z"/>
</svg>
